<?xml version="1.0" encoding="UTF-8" standalone="no" ?>
<!DOCTYPE svg PUBLIC "-//W3C//DTD SVG 1.1//EN" "http://www.w3.org/Graphics/SVG/1.1/DTD/svg11.dtd">
<svg xmlns="http://www.w3.org/2000/svg" xmlns:xlink="http://www.w3.org/1999/xlink" version="1.1" width="1280" height="1024" viewBox="0 0 1280 1024" xml:space="preserve">
<desc>Created with Fabric.js 5.3.0</desc>
<defs>
</defs>
<g transform="matrix(1 0 0 1 640 512)" id="background-logo"  >
<rect style="stroke: none; stroke-width: 0; stroke-dasharray: none; stroke-linecap: butt; stroke-dashoffset: 0; stroke-linejoin: miter; stroke-miterlimit: 4; fill: rgb(252,220,196); fill-rule: nonzero; opacity: 1;"  paint-order="stroke"  x="-640" y="-512" rx="0" ry="0" width="1280" height="1024" />
</g>
<g transform="matrix(1.9211538461538462 0 0 1.9211538461538462 638.7908721882915 378.64625929579694)" id="logo-logo"  >
<g style=""  paint-order="stroke"   >
		<g transform="matrix(0 -1.0030806221353972 1.003080622135397 0 0 0)"  >
<g style=""  paint-order="stroke"   >
		<g transform="matrix(1 0 0 1 0 0)"  >
<path style="stroke: none; stroke-width: 1; stroke-dasharray: none; stroke-linecap: butt; stroke-dashoffset: 0; stroke-linejoin: miter; stroke-miterlimit: 4; fill: rgb(240,99,0); fill-rule: nonzero; opacity: 1;"  paint-order="stroke"  transform=" translate(-99.6350905431677, -100.00380481127695)" d="M 127.86 19.5 C 93.7 7 53.9 18.09 31 46.22 C 8.100000000000001 74.35 4.75 115.22 23.68 146.45999999999998 C 42.61 177.69999999999996 79.43 193.79 115.16 187 C 155.85 179.25 185 142.46 185.45 101.5 C 185.12839348875255 64.86458773443763 162.21218599238836 32.23515528606349 127.85999999999999 19.5 Z M 123.86 172.39 C 94.02129497970246 182.8995662155028 60.79234839522026 173.88198622024095 40.36 149.73 C 19.89 125.41 17.36 89.58999999999999 33.79 62.47999999999999 C 50 35.76 82.19 21.34 112.89 27.54 C 148.07999999999998 34.64 173.25 65.77 173.65 101.49000000000001 C 173.3 132.84 153.73 161.78 123.9 172.39 Z M 98.3 195.86 C 46.42014126230071 195.28686884901435 4.503131150985666 153.3698587376993 3.930000000000007 101.49000000000001 C 3.91 99 0 99 0 101.49 C 0.6053904839655958 155.52684351276318 44.26315648723682 199.1846095160344 98.3 199.79 C 100.84 199.82 100.84 195.88 98.3 195.86 Z M 97.94 7.08 C 150.0407591885915 7.653181812199722 192.13681818780023 49.74924081140845 192.70999999999998 101.84999999999994 C 192.70999999999998 106.07 199.30999999999997 106.08 199.26999999999998 101.85 C 198.63776311364927 46.15096926986165 153.63903073013836 1.1522368863507353 97.94000000000003 0.5200000000000102 C 93.72 0.48 93.72 7 97.94 7.08 Z M 191.81 109.31 C 190.15569486274438 110.96636767897049 190.15680947168585 113.65002670160582 191.81248992231752 115.305019638293 C 193.4681703729492 116.9600125749802 196.1518296270508 116.9600125749802 197.80751007768248 115.30501963829302 C 199.46319052831416 113.65002670160582 199.46430513725562 110.9663676789705 197.81 109.31 C 197.01733126629335 108.50875659354612 195.93708239174512 108.05789487684453 194.81 108.05789487684453 C 193.68291760825488 108.05789487684453 192.60266873370665 108.50875659354612 191.81 109.31 Z M 193 119 C 192.0009782553198 119 191.10032662495868 119.6017961796145 190.71801755469713 120.52477192205824 C 190.33570848443554 121.44774766450196 190.54703120025306 122.51013869931461 191.25344625046924 123.21655374953077 C 191.9598613006854 123.92296879974694 193.02225233549802 124.13429151556446 193.94522807794178 123.75198244530287 C 194.8682038203855 123.3696733750413 195.47 122.46902174468018 195.47 121.47 C 195.47 120.10585666791793 194.36414333208205 119 193 119 Z M 2.19 97.36 C 3.377237421022201 97.47583427925497 4.433605137889001 96.60733772791016 4.549524238909743 95.42010858568676 C 4.665443339930484 94.23287944346336 3.7970222628904446 93.17644967964146 2.609801405525909 93.06044575744664 C 1.4225805481613736 92.94444183525181 0.36608874277677783 93.81278743355435 0.25 95 C 0.19424159700637605 95.57022821623849 0.3673213896172156 96.13924765575658 0.7311539176805524 96.58184805072023 C 1.0949864457438891 97.02444844568387 1.619759845898605 97.30436381798368 2.1899999999999995 97.36 Z M 3.34 91.2 C 4.043322666334438 91.26833565957735 4.668968613970261 90.75380436419009 4.7377120726268425 90.05052143944246 C 4.806455531283424 89.34723851469482 4.292287093336135 88.7212943293677 3.5890441466244996 88.65214309474395 C 2.885801199912863 88.5829918601202 2.259558987341717 89.09679726776011 2.19 89.8 C 2.1259820645659135 90.50262910580793 2.6383161753112616 91.1263401971501 3.34 91.2 Z M 89.12 8.06 C 91.21960188787928 7.0242084966374065 92.08232920150375 4.482714919048352 91.04716256998051 2.382804880259739 C 90.01199593845726 0.2828948414711263 87.47075921466711 -0.5805887636195433 85.37054121094003 0.45395290438859437 C 83.27032320721297 1.488494572396732 82.40608338712738 4.0294742173326235 83.44 6.129999999999999 C 83.93689841111302 7.139508804592485 84.81467909847872 7.910114453423454 85.88003155251198 8.27210921333264 C 86.94538400654523 8.634103973241828 88.11093521753321 8.557799480013433 89.12 8.06 Z M 79.32000000000001 8.93 C 80.52891625063141 8.320149836094815 81.0177184279693 6.847998382460929 80.41365536617494 5.636180103661879 C 79.80959230438057 4.424361824862828 78.33979476342945 3.928526509843171 77.12510215921824 4.52678866035119 C 75.91040955500705 5.12505081085921 75.40755243734219 6.592460838840621 76 7.809999999999999 C 76.29020111250767 8.400231449911885 76.80382267052421 8.850345797101834 77.42703158363435 9.06058494851248 C 78.05024049674446 9.270824099923127 78.73156346004824 9.223823567154486 79.32 8.93 Z M 104.18 195.73000000000002 C 103.32933413527176 195.93297552594734 102.68500609907414 196.62886856753977 102.54799260513717 197.49261550966264 C 102.4109791112002 198.35636245178551 102.80832142399125 199.21749242457295 103.5544141114768 199.67375679884296 C 104.30050679896236 200.130021173113 105.24809947652903 200.09137067519816 105.95455529768515 199.57585961779776 C 106.66101111884126 199.06034856039736 106.9869025122911 198.1697192642015 106.78 197.32000000000002 C 106.49869360245116 196.16471453491062 105.33657247113472 195.454032766144 104.18 195.73 Z M 109.73 195.87 C 109.39886766881075 195.94570972959795 109.11233011625058 196.15190836236818 108.93535778110838 196.44184176249473 C 108.7583854459662 196.7317751626213 108.70597133826567 197.08088031368246 108.79 197.41 C 108.91025955170797 197.91433990206443 109.32288655762625 198.2963175168595 109.83499147671662 198.37737088467847 C 110.34709639580701 198.45842425249742 110.85751518279285 198.22254164163024 111.12764385842206 197.7799904070888 C 111.39777253405127 197.33743917254733 111.37424838190937 196.7756433390957 111.0680681686764 196.3572239638082 C 110.76188795544344 195.9388045885207 110.23353621817351 195.74641855487621 109.73 195.87 Z" stroke-linecap="round" />
</g>
</g>
</g>
</g>
</g>
<g transform="matrix(1.9211538461538462 0 0 1.9211538461538462 640.0288173076923 691.9898750693146)" id="text-logo"  >
<g style=""  paint-order="stroke"   >
		<g transform="matrix(1 0 0 1 0 0)" id="text-logo-path-0"  >
<path style="stroke: none; stroke-width: 0; stroke-dasharray: none; stroke-linecap: butt; stroke-dashoffset: 0; stroke-linejoin: miter; stroke-miterlimit: 4; fill: rgb(240,99,0); fill-rule: nonzero; opacity: 1;"  paint-order="stroke"  transform=" translate(-113.64, 19.29)" d="M 16.08 -32.64 C 16.8 -32.64 17.16 -32.28 17.16 -31.56 L 17.16 -6.96 C 17.16 -6.28 16.8 -5.94 16.08 -5.94 L 9.66 -5.94 C 8.94 -5.9 8.58 -6.24 8.58 -6.96 L 8.58 -31.56 C 8.58 -32.28 8.94 -32.64 9.66 -32.64 Z M 6.42 -38.58 C 5.22 -38.58 4.21 -38.16 3.39 -37.32 C 2.57 -36.48 2.16 -35.46 2.16 -34.26 L 2.16 -4.26 C 2.16 -3.06 2.57 -2.05 3.39 -1.23 C 4.21 -0.41 5.22 0 6.42 0 L 19.26 0 C 20.46 0 21.48 -0.41 22.32 -1.23 C 23.16 -2.05 23.58 -3.06 23.58 -4.26 L 23.58 -34.26 C 23.58 -35.46 23.16 -36.48 22.32 -37.32 C 21.48 -38.16 20.46 -38.58 19.26 -38.58 Z M 29.04 -38.58 L 29.04 0 L 35.46 0 L 35.46 -22.62 L 44.52 0 L 51.54 0 L 51.54 -38.58 L 45.12 -38.58 L 45.12 -15.96 L 35.94 -38.58 Z M 57 -38.58 L 57 0 L 63.42 0 L 63.42 -27.54 L 70.08 0 L 77.58 0 L 84.3 -27.54 L 84.3 0 L 90.72 0 L 90.72 -38.58 L 80.88 -38.58 L 73.86 -9.84 L 73.8 -9.84 L 66.84 -38.58 Z M 105.24 -14.46 L 108.54 -28.08 L 111.84 -14.46 Z M 104.52 -38.58 L 95.16 0 L 101.76 0 L 103.86 -8.58 L 113.22 -8.58 L 115.32 0 L 121.92 0 L 112.56 -38.58 Z M 140.28 -32.64 C 141 -32.64 141.36 -32.28 141.36 -31.56 L 141.36 -23.34 C 141.36 -22.62 141 -22.26 140.28 -22.26 L 132.78 -22.26 L 132.78 -32.64 Z M 126.36 -38.58 L 126.36 0 L 132.78 0 L 132.78 -16.32 L 133.98 -16.32 L 141.72 0 L 148.86 0 L 141.12 -16.32 L 143.46 -16.32 C 144.66 -16.32 145.68 -16.74 146.52 -17.58 C 147.36 -18.42 147.78 -19.44 147.78 -20.64 L 147.78 -34.26 C 147.78 -35.46 147.35 -36.48 146.49 -37.32 C 145.63 -38.16 144.62 -38.58 143.46 -38.58 Z M 153.24 -38.58 L 153.24 0 L 159.66 0 L 159.66 -16.32 L 160.86 -16.32 L 168.6 0 L 175.74 0 L 166.62 -19.26 L 175.74 -38.58 L 168.6 -38.58 L 160.86 -22.26 L 159.66 -22.26 L 159.66 -38.58 Z M 180.12 -38.58 L 180.12 0 L 199.38 0 L 199.38 -5.94 L 186.54 -5.94 L 186.54 -16.32 L 197.22 -16.32 L 197.22 -22.26 L 186.54 -22.26 L 186.54 -32.64 L 198.3 -32.64 L 198.3 -38.58 Z M 204.84 -38.58 L 204.84 -32.64 L 211.74 -32.64 L 211.74 0 L 218.22 0 L 218.22 -32.64 L 225.12 -32.64 L 225.12 -38.58 Z" stroke-linecap="round" />
</g>
</g>
</g>
<g transform="matrix(1.9211538461538462 0 0 1.9211538461538462 645.8432152903465 369.17066795792135)" id="tagline-3152705a-3764-47fc-9e9b-b1693627290e-logo"  >
<g style=""  paint-order="stroke"   >
		<g transform="matrix(1 0 0 1 0 0)" id="tagline-3152705a-3764-47fc-9e9b-b1693627290e-logo-path-0"  >
<path style="stroke: none; stroke-width: 0; stroke-dasharray: none; stroke-linecap: butt; stroke-dashoffset: 0; stroke-linejoin: miter; stroke-miterlimit: 4; fill: rgb(240,99,0); fill-rule: nonzero; opacity: 1;"  paint-order="stroke"  transform=" translate(-33.11856782411371, 32.89031565304414)" d="M 41.92 -60.25 C 47.7 -60.61 47.08 -69.51 41.38 -69.15 C 20.29 -67.82 7.74 -53.58 2.67 -38.09 C 2.67 -38.09 2.58 -37.91 2.58 -37.91 C -2.31 -20.65 3.38 3.38 25.19 3.38 C 40.58 3.38 51.71 -12.19 57.05 -29.46 C 61.32 -45.12 57.58 -59.01 43.52 -59.01 C 21 -59.01 12.9 -5.96 46.19 -5.96 C 55.71 -5.96 61.77 -10.59 64.7 -15.31 C 67.19 -19.31 61.14 -23.05 58.65 -19.05 C 56.6 -15.75 53.58 -13.08 46.19 -13.08 C 23.23 -13.08 30.79 -51.89 43.52 -51.89 C 48.15 -51.89 52.33 -46.1 48.5 -32.13 C 43.88 -17.09 32.22 -7.3 25.19 -7.3 C 14.24 -7.3 11.39 -20.11 15.4 -34.18 C 15.4 -34.09 15.4 -34.18 15.4 -34.18 C 18.6 -43.88 26.25 -59.27 41.92 -60.25 Z" stroke-linecap="round" />
</g>
</g>
</g>
<g transform="matrix(1.9211538461538462 0 0 1.9211538461538462 640.0000000000002 782.8715946846991)" id="tagline-347795ba-7209-4e75-b143-2a3769343477-logo"  >
<g style=""  paint-order="stroke"   >
		<g transform="matrix(1 0 0 1 0 0)" id="tagline-347795ba-7209-4e75-b143-2a3769343477-logo-path-0"  >
<path style="stroke: none; stroke-width: 0; stroke-dasharray: none; stroke-linecap: butt; stroke-dashoffset: 0; stroke-linejoin: miter; stroke-miterlimit: 4; fill: rgb(240,99,0); fill-rule: nonzero; opacity: 1;"  paint-order="stroke"  transform=" translate(-163.07999999999998, 10.41)" d="M 12 -2.25 C 7.44 -2.25 3.72 -5.97 3.72 -10.53 C 3.72 -15.03 7.44 -18.75 12 -18.75 C 16.53 -18.75 20.25 -15.03 20.25 -10.53 C 20.25 -5.97 16.53 -2.25 12 -2.25 Z M 12 0.15 C 17.85 0.15 22.65 -4.65 22.65 -10.53 C 22.65 -16.35 17.85 -21.15 12 -21.15 C 6.12 -21.15 1.32 -16.35 1.32 -10.53 C 1.32 -4.65 6.12 0.15 12 0.15 Z M 37.8 -1.08 L 37.8 -15.72 C 37.8 -16.47 38.13 -16.56 38.55 -15.96 L 48.81 -0.69 C 49.68 0.69 51.9 0.06 51.9 -1.65 L 51.9 -19.92 C 51.9 -20.58 51.36 -21.12 50.7 -21.12 C 50.04 -21.12 49.5 -20.58 49.5 -19.92 L 49.5 -5.28 C 49.5 -4.53 49.17 -4.44 48.75 -5.04 L 38.49 -20.31 C 37.62 -21.69 35.4 -21.06 35.4 -19.35 L 35.4 -1.08 C 35.4 -0.42 35.94 0.12 36.6 0.12 C 37.26 0.12 37.8 -0.42 37.8 -1.08 Z M 36.51 -18.99 L 36.54 -18.96 Z M 50.76 -2.04 L 50.79 -2.01 Z M 77.07 -2.4 L 68.4 -2.4 C 67.65 -2.4 67.05 -3 67.05 -3.75 L 67.05 -19.92 C 67.05 -20.58 66.51 -21.12 65.85 -21.12 C 65.19 -21.12 64.65 -20.58 64.65 -19.92 L 64.65 -1.65 C 64.65 -0.75 65.4 0 66.3 0 L 77.07 0 C 77.73 0 78.27 -0.54 78.27 -1.2 C 78.27 -1.86 77.73 -2.4 77.07 -2.4 Z M 93.42 -1.08 L 93.42 -19.92 C 93.42 -20.58 92.88 -21.12 92.22 -21.12 C 91.56 -21.12 91.02 -20.58 91.02 -19.92 L 91.02 -1.08 C 91.02 -0.42 91.56 0.12 92.22 0.12 C 92.88 0.12 93.42 -0.42 93.42 -1.08 Z M 108.57 -1.08 L 108.57 -15.72 C 108.57 -16.47 108.9 -16.56 109.32 -15.96 L 119.58 -0.69 C 120.45 0.69 122.67 0.06 122.67 -1.65 L 122.67 -19.92 C 122.67 -20.58 122.13 -21.12 121.47 -21.12 C 120.81 -21.12 120.27 -20.58 120.27 -19.92 L 120.27 -5.28 C 120.27 -4.53 119.94 -4.44 119.52 -5.04 L 109.26 -20.31 C 108.39 -21.69 106.17 -21.06 106.17 -19.35 L 106.17 -1.08 C 106.17 -0.42 106.71 0.12 107.37 0.12 C 108.03 0.12 108.57 -0.42 108.57 -1.08 Z M 107.28 -18.99 L 107.31 -18.96 Z M 121.53 -2.04 L 121.56 -2.01 Z M 147.84 -2.4 L 139.17 -2.4 C 138.42 -2.4 137.82 -3 137.82 -3.75 L 137.82 -7.95 C 137.82 -8.7 138.42 -9.3 139.17 -9.3 L 145.74 -9.3 C 146.4 -9.3 146.94 -9.84 146.94 -10.5 C 146.94 -11.16 146.4 -11.7 145.74 -11.7 L 139.17 -11.7 C 138.42 -11.7 137.82 -12.3 137.82 -13.05 L 137.82 -17.25 C 137.82 -18 138.42 -18.6 139.17 -18.6 L 147.84 -18.6 C 148.5 -18.6 149.04 -19.14 149.04 -19.8 C 149.04 -20.46 148.5 -21 147.84 -21 L 137.07 -21 C 136.17 -21 135.42 -20.25 135.42 -19.35 L 135.42 -1.65 C 135.42 -0.75 136.17 0 137.07 0 L 147.84 0 C 148.5 0 149.04 -0.54 149.04 -1.2 C 149.04 -1.86 148.5 -2.4 147.84 -2.4 Z M 182.79 -1.08 L 182.79 -19.44 C 182.79 -21.09 180.6 -21.72 179.73 -20.31 L 173.01 -9.84 C 172.62 -9.21 171.96 -9.21 171.57 -9.84 L 164.85 -20.31 C 163.98 -21.72 161.79 -21.09 161.79 -19.44 L 161.79 -1.08 C 161.79 -0.42 162.33 0.12 162.99 0.12 C 163.65 0.12 164.19 -0.42 164.19 -1.08 L 164.19 -15.54 C 164.19 -16.29 164.52 -16.38 164.91 -15.75 L 171 -6.27 C 171.6 -5.28 172.98 -5.28 173.58 -6.27 L 179.67 -15.75 C 180.06 -16.38 180.39 -16.29 180.39 -15.54 L 180.39 -1.08 C 180.39 -0.42 180.93 0.12 181.59 0.12 C 182.25 0.12 182.79 -0.42 182.79 -1.08 Z M 162.81 -19.05 L 162.81 -19.02 Z M 181.77 -19.02 L 181.77 -19.05 Z M 214.11 -1.47 L 206.58 -19.95 C 205.95 -21.54 203.79 -21.54 203.16 -19.95 L 195.63 -1.47 C 195.57 -1.35 195.54 -1.17 195.54 -0.99 C 195.54 -0.36 196.05 0.21 196.74 0.21 C 197.19 0.21 197.64 -0.09 197.82 -0.51 L 198.93 -3.24 C 199.2 -3.93 200.04 -4.5 200.79 -4.5 L 208.95 -4.5 C 209.7 -4.5 210.54 -3.93 210.81 -3.24 L 211.92 -0.51 C 212.1 -0.09 212.52 0.21 213 0.21 C 213.66 0.21 214.2 -0.33 214.2 -0.99 C 214.2 -1.14 214.17 -1.32 214.11 -1.47 Z M 200.94 -8.16 L 204.36 -16.53 C 204.63 -17.22 205.11 -17.22 205.38 -16.53 L 208.8 -8.16 C 209.07 -7.47 208.71 -6.9 207.96 -6.9 L 201.78 -6.9 C 201.03 -6.9 200.67 -7.47 200.94 -8.16 Z M 229.35 -1.08 L 229.35 -5.07 C 229.35 -5.82 229.95 -6.42 230.7 -6.42 L 232.71 -6.42 C 233.46 -6.42 234.42 -5.94 234.87 -5.34 L 238.89 -0.12 C 239.1 0.18 239.43 0.33 239.82 0.33 C 240.45 0.33 241.02 -0.18 241.02 -0.87 C 241.02 -1.11 240.93 -1.38 240.78 -1.59 L 237.57 -5.76 C 237.12 -6.36 237.3 -7.08 237.99 -7.41 C 240.18 -8.67 241.68 -11.04 241.68 -13.71 C 241.68 -17.67 238.35 -21 234.39 -21 L 228.6 -21 C 227.7 -21 226.95 -20.25 226.95 -19.35 L 226.95 -1.08 C 226.95 -0.42 227.49 0.12 228.15 0.12 C 228.81 0.12 229.35 -0.42 229.35 -1.08 Z M 229.35 -10.17 L 229.35 -17.25 C 229.35 -18 229.95 -18.6 230.7 -18.6 L 234.39 -18.6 C 237.18 -18.6 239.28 -16.5 239.28 -13.71 C 239.28 -10.92 237.18 -8.82 234.39 -8.82 L 230.7 -8.82 C 229.95 -8.82 229.35 -9.42 229.35 -10.17 Z M 256.83 -1.08 L 256.83 -4.71 C 256.83 -5.46 257.25 -6.48 257.79 -7.02 L 258.6 -7.83 C 259.14 -8.37 259.98 -8.37 260.52 -7.83 L 268.11 -0.21 C 268.32 0 268.65 0.15 268.98 0.15 C 269.61 0.15 270.18 -0.39 270.18 -1.05 C 270.18 -1.38 270.03 -1.71 269.58 -2.16 L 262.23 -9.54 C 261.69 -10.08 261.69 -10.92 262.23 -11.46 L 269.82 -19.11 C 270.03 -19.32 270.18 -19.62 270.18 -19.95 C 270.18 -20.61 269.64 -21.15 268.98 -21.15 C 268.68 -21.15 268.35 -21.03 268.14 -20.82 L 257.79 -10.41 C 257.25 -9.87 256.83 -10.05 256.83 -10.8 L 256.83 -19.92 C 256.83 -20.58 256.29 -21.12 255.63 -21.12 C 254.97 -21.12 254.43 -20.58 254.43 -19.92 L 254.43 -1.08 C 254.43 -0.42 254.97 0.12 255.63 0.12 C 256.29 0.12 256.83 -0.42 256.83 -1.08 Z M 295.35 -2.4 L 286.68 -2.4 C 285.93 -2.4 285.33 -3 285.33 -3.75 L 285.33 -7.95 C 285.33 -8.7 285.93 -9.3 286.68 -9.3 L 293.25 -9.3 C 293.91 -9.3 294.45 -9.84 294.45 -10.5 C 294.45 -11.16 293.91 -11.7 293.25 -11.7 L 286.68 -11.7 C 285.93 -11.7 285.33 -12.3 285.33 -13.05 L 285.33 -17.25 C 285.33 -18 285.93 -18.6 286.68 -18.6 L 295.35 -18.6 C 296.01 -18.6 296.55 -19.14 296.55 -19.8 C 296.55 -20.46 296.01 -21 295.35 -21 L 284.58 -21 C 283.68 -21 282.93 -20.25 282.93 -19.35 L 282.93 -1.65 C 282.93 -0.75 283.68 0 284.58 0 L 295.35 0 C 296.01 0 296.55 -0.54 296.55 -1.2 C 296.55 -1.86 296.01 -2.4 295.35 -2.4 Z M 318.27 -1.08 L 318.27 -17.25 C 318.27 -18 318.87 -18.6 319.62 -18.6 L 323.64 -18.6 C 324.3 -18.6 324.84 -19.14 324.84 -19.8 C 324.84 -20.46 324.3 -21 323.64 -21 L 310.5 -21 C 309.84 -21 309.3 -20.46 309.3 -19.8 C 309.3 -19.14 309.84 -18.6 310.5 -18.6 L 314.52 -18.6 C 315.27 -18.6 315.87 -18 315.87 -17.25 L 315.87 -1.08 C 315.87 -0.42 316.41 0.12 317.07 0.12 C 317.73 0.12 318.27 -0.42 318.27 -1.08 Z" stroke-linecap="round" />
</g>
</g>
</g>
</svg>